<svg width="183" height="51" viewBox="0 0 183 51" fill="none" xmlns="http://www.w3.org/2000/svg">
<g clip-path="url(#clip0_1_16)">
<mask id="mask0_1_16" style="mask-type:luminance" maskUnits="userSpaceOnUse" x="156" y="0" width="27" height="28">
<path d="M182.258 0H156.258V28H182.258V0Z" fill="white"/>
</mask>
<g mask="url(#mask0_1_16)">
<path fill-rule="evenodd" clip-rule="evenodd" d="M175.427 0.933536L171.297 11.6392L181.289 7.19203L182.258 9.49832L172.215 13.9449L182.258 18.392L181.289 20.6432L171.297 16.196L175.427 26.9568L173.336 28L169.207 17.1841L165.077 28L162.987 26.9568L167.066 16.196L157.125 20.6432L156.258 18.392L166.199 13.9449L156.258 9.49832L157.125 7.24717L167.066 11.6392L162.987 0.933536L165.077 0L169.207 10.7057L173.336 0L175.427 0.933536Z" fill="black"/>
</g>
</g>
<path d="M7.85156 25.0586V31.7383H12.1875V33.6719H7.85156V44.9414C7.85156 45.9961 7.89714 46.6797 7.98828 46.9922C8.09245 47.2917 8.26823 47.5391 8.51562 47.7344C8.76302 47.9167 8.99089 48.0078 9.19922 48.0078C10.0456 48.0078 10.8464 47.3633 11.6016 46.0742L12.1875 46.5039C11.1328 49.0039 9.42057 50.2539 7.05078 50.2539C5.89193 50.2539 4.90885 49.9349 4.10156 49.2969C3.30729 48.6458 2.79948 47.9232 2.57812 47.1289C2.44792 46.6862 2.38281 45.4883 2.38281 43.5352V33.6719H0V32.9883C1.64062 31.8294 3.03385 30.612 4.17969 29.3359C5.33854 28.0599 6.34766 26.6341 7.20703 25.0586H7.85156Z" fill="black"/>
<path d="M20.9391 31.1914C22.5276 31.1914 24.0055 31.6016 25.3727 32.4219C26.7398 33.2422 27.775 34.4076 28.4781 35.918C29.1943 37.4284 29.5523 39.082 29.5523 40.8789C29.5523 43.4701 28.8948 45.638 27.5797 47.3828C25.9911 49.4922 23.7971 50.5469 20.9977 50.5469C18.2503 50.5469 16.1344 49.5833 14.65 47.6562C13.1656 45.7292 12.4234 43.4961 12.4234 40.957C12.4234 38.3398 13.1786 36.0612 14.6891 34.1211C16.2125 32.168 18.2958 31.1914 20.9391 31.1914ZM21.0172 32.5781C20.3531 32.5781 19.7802 32.832 19.2984 33.3398C18.8297 33.8346 18.5172 34.8242 18.3609 36.3086C18.2177 37.7799 18.1461 39.8307 18.1461 42.4609C18.1461 43.8542 18.2372 45.1562 18.4195 46.3672C18.5628 47.2917 18.8687 47.9948 19.3375 48.4766C19.8062 48.9583 20.3401 49.1992 20.9391 49.1992C21.525 49.1992 22.0133 49.0365 22.4039 48.7109C22.9117 48.2682 23.2503 47.6497 23.4195 46.8555C23.6799 45.6185 23.8102 43.1185 23.8102 39.3555C23.8102 37.1419 23.6865 35.625 23.4391 34.8047C23.1917 33.9714 22.8271 33.3659 22.3453 32.9883C22.0068 32.7148 21.5641 32.5781 21.0172 32.5781Z" fill="black"/>
<path d="M38.1477 23.5156V40.9375L42.3859 36.7773C43.2583 35.931 43.7987 35.319 44.007 34.9414C44.2284 34.5638 44.3391 34.1992 44.3391 33.8477C44.3391 33.4961 44.1958 33.2031 43.9094 32.9688C43.6229 32.7344 43.063 32.5651 42.2297 32.4609V31.7383H50.4133V32.4609C49.632 32.5 48.9484 32.6888 48.3625 33.0273C47.7766 33.3529 46.6307 34.349 44.925 36.0156L42.9328 37.9688L47.2297 44.2578C48.9615 46.8099 49.9901 48.2422 50.3156 48.5547C50.7583 48.9974 51.3182 49.2448 51.9953 49.2969V50H42.5617V49.2969C42.9784 49.2969 43.2779 49.2188 43.4602 49.0625C43.6555 48.9062 43.7531 48.737 43.7531 48.5547C43.7531 48.2552 43.4797 47.7018 42.9328 46.8945L39.3195 41.6016L38.1477 42.7539V46.0352C38.1477 47.4284 38.2779 48.3008 38.5383 48.6523C38.7987 48.9909 39.3326 49.2057 40.1398 49.2969V50H30.7062V49.2969C31.4745 49.2188 32.0214 48.9714 32.3469 48.5547C32.5682 48.2682 32.6789 47.4284 32.6789 46.0352V27.4805C32.6789 26.1003 32.5487 25.2409 32.2883 24.9023C32.0409 24.5638 31.5135 24.3424 30.7062 24.2383V23.5156H38.1477Z" fill="black"/>
<path d="M66.8602 40.2148H56.8406C56.9578 42.6367 57.6023 44.5508 58.7742 45.957C59.6727 47.0378 60.7534 47.5781 62.0164 47.5781C62.7977 47.5781 63.5073 47.3633 64.1453 46.9336C64.7833 46.4909 65.4669 45.7031 66.1961 44.5703L66.8602 45C65.8706 47.0182 64.7768 48.4505 63.5789 49.2969C62.381 50.1302 60.9943 50.5469 59.4188 50.5469C56.7104 50.5469 54.6596 49.5052 53.2664 47.4219C52.1466 45.7422 51.5867 43.6589 51.5867 41.1719C51.5867 38.125 52.407 35.7031 54.0477 33.9062C55.7013 32.0964 57.6349 31.1914 59.8484 31.1914C61.6974 31.1914 63.299 31.9531 64.6531 33.4766C66.0203 34.987 66.756 37.2331 66.8602 40.2148ZM62.0555 38.9062C62.0555 36.8099 61.9383 35.3711 61.7039 34.5898C61.4826 33.8086 61.131 33.2161 60.6492 32.8125C60.3758 32.5781 60.0112 32.4609 59.5555 32.4609C58.8784 32.4609 58.325 32.793 57.8953 33.457C57.1271 34.6159 56.743 36.2044 56.743 38.2227V38.9062H62.0555Z" fill="black"/>
<path d="M75.0258 31.7383V34.1016C75.9633 33.0859 76.8617 32.3503 77.7211 31.8945C78.5805 31.4258 79.5049 31.1914 80.4945 31.1914C81.6794 31.1914 82.6625 31.5234 83.4437 32.1875C84.225 32.8385 84.7458 33.6523 85.0062 34.6289C85.2146 35.3711 85.3187 36.7969 85.3187 38.9062V46.0156C85.3187 47.4219 85.4424 48.3008 85.6898 48.6523C85.9503 48.9909 86.4841 49.2057 87.2914 49.2969V50H78.0531V49.2969C78.7432 49.2057 79.238 48.9193 79.5375 48.4375C79.7458 48.112 79.85 47.3047 79.85 46.0156V37.8906C79.85 36.3932 79.7914 35.4492 79.6742 35.0586C79.557 34.668 79.3552 34.3685 79.0687 34.1602C78.7953 33.9388 78.4893 33.8281 78.1508 33.8281C77.031 33.8281 75.9893 34.6289 75.0258 36.2305V46.0156C75.0258 47.3828 75.1495 48.2487 75.3969 48.6133C75.6573 48.9779 76.1326 49.2057 76.8227 49.2969V50H67.5844V49.2969C68.3526 49.2188 68.8995 48.9714 69.225 48.5547C69.4464 48.2682 69.557 47.4219 69.557 46.0156V35.7031C69.557 34.3229 69.4268 33.4635 69.1664 33.125C68.919 32.7865 68.3917 32.5651 67.5844 32.4609V31.7383H75.0258Z" fill="black"/>
<path d="M95.4766 25.0586V31.7383H99.8125V33.6719H95.4766V44.9414C95.4766 45.9961 95.5221 46.6797 95.6133 46.9922C95.7174 47.2917 95.8932 47.5391 96.1406 47.7344C96.388 47.9167 96.6159 48.0078 96.8242 48.0078C97.6706 48.0078 98.4714 47.3633 99.2266 46.0742L99.8125 46.5039C98.7578 49.0039 97.0456 50.2539 94.6758 50.2539C93.5169 50.2539 92.5339 49.9349 91.7266 49.2969C90.9323 48.6458 90.4245 47.9232 90.2031 47.1289C90.0729 46.6862 90.0078 45.4883 90.0078 43.5352V33.6719H87.625V32.9883C89.2656 31.8294 90.6589 30.612 91.8047 29.3359C92.9635 28.0599 93.9727 26.6341 94.832 25.0586H95.4766Z" fill="black"/>
<path d="M107.529 31.7383V35.8789C108.74 33.9909 109.801 32.7409 110.713 32.1289C111.624 31.5039 112.503 31.1914 113.349 31.1914C114.078 31.1914 114.658 31.4193 115.088 31.875C115.53 32.3177 115.752 32.9492 115.752 33.7695C115.752 34.6419 115.537 35.319 115.107 35.8008C114.69 36.2826 114.183 36.5234 113.584 36.5234C112.893 36.5234 112.295 36.3021 111.787 35.8594C111.279 35.4167 110.979 35.1693 110.888 35.1172C110.758 35.0391 110.608 35 110.439 35C110.061 35 109.703 35.1432 109.365 35.4297C108.831 35.8724 108.427 36.5039 108.154 37.3242C107.737 38.5872 107.529 39.9805 107.529 41.5039V45.7031L107.548 46.7969C107.548 47.5391 107.594 48.0143 107.685 48.2227C107.841 48.5742 108.069 48.8346 108.369 49.0039C108.681 49.1602 109.202 49.2578 109.931 49.2969V50H100.068V49.2969C100.862 49.2318 101.396 49.0169 101.67 48.6523C101.956 48.2747 102.099 47.2917 102.099 45.7031V35.6055C102.099 34.5638 102.047 33.8997 101.943 33.6133C101.813 33.2487 101.624 32.9818 101.377 32.8125C101.129 32.6432 100.693 32.526 100.068 32.4609V31.7383H107.529Z" fill="black"/>
<path d="M133.761 31.7383V46.0352C133.761 47.4284 133.891 48.3008 134.152 48.6523C134.412 48.9909 134.939 49.2057 135.734 49.2969V50H128.292V47.5586C127.42 48.6003 126.547 49.362 125.675 49.8438C124.803 50.3125 123.826 50.5469 122.745 50.5469C121.717 50.5469 120.799 50.2344 119.991 49.6094C119.197 48.9714 118.663 48.2292 118.39 47.3828C118.116 46.5365 117.98 45.0586 117.98 42.9492V35.7031C117.98 34.3229 117.849 33.4635 117.589 33.125C117.342 32.7865 116.814 32.5651 116.007 32.4609V31.7383H123.448V44.2188C123.448 45.5208 123.507 46.3607 123.624 46.7383C123.754 47.1159 123.95 47.4023 124.21 47.5977C124.484 47.793 124.796 47.8906 125.148 47.8906C125.616 47.8906 126.04 47.7669 126.417 47.5195C126.938 47.181 127.563 46.4974 128.292 45.4688V35.7031C128.292 34.3229 128.162 33.4635 127.902 33.125C127.654 32.7865 127.127 32.5651 126.32 32.4609V31.7383H133.761Z" fill="black"/>
<path d="M148.333 31.2305L148.626 37.4609H147.962C147.167 35.612 146.341 34.349 145.481 33.6719C144.635 32.9948 143.789 32.6562 142.942 32.6562C142.408 32.6562 141.953 32.8385 141.575 33.2031C141.197 33.5547 141.009 33.9648 141.009 34.4336C141.009 34.7852 141.139 35.1237 141.399 35.4492C141.816 35.9831 142.981 36.901 144.895 38.2031C146.809 39.4922 148.066 40.5924 148.665 41.5039C149.277 42.4023 149.583 43.4115 149.583 44.5312C149.583 45.5469 149.329 46.543 148.821 47.5195C148.313 48.4961 147.597 49.2448 146.673 49.7656C145.748 50.2865 144.726 50.5469 143.606 50.5469C142.734 50.5469 141.568 50.2734 140.11 49.7266C139.72 49.5833 139.453 49.5117 139.309 49.5117C138.88 49.5117 138.522 49.8372 138.235 50.4883H137.591L137.278 43.9258H137.942C138.528 45.6445 139.329 46.9336 140.345 47.793C141.373 48.6523 142.343 49.082 143.255 49.082C143.88 49.082 144.387 48.8932 144.778 48.5156C145.182 48.125 145.384 47.6562 145.384 47.1094C145.384 46.4844 145.188 45.944 144.798 45.4883C144.407 45.0326 143.535 44.3424 142.18 43.418C140.188 42.0378 138.899 40.9831 138.313 40.2539C137.454 39.1862 137.024 38.0078 137.024 36.7188C137.024 35.3125 137.506 34.043 138.47 32.9102C139.446 31.7643 140.852 31.1914 142.688 31.1914C143.678 31.1914 144.635 31.4323 145.559 31.9141C145.911 32.1094 146.197 32.207 146.419 32.207C146.653 32.207 146.842 32.1615 146.985 32.0703C147.128 31.9661 147.356 31.6862 147.669 31.2305H148.333Z" fill="black"/>
<path d="M158.022 25.0586V31.7383H162.358V33.6719H158.022V44.9414C158.022 45.9961 158.067 46.6797 158.159 46.9922C158.263 47.2917 158.439 47.5391 158.686 47.7344C158.933 47.9167 159.161 48.0078 159.37 48.0078C160.216 48.0078 161.017 47.3633 161.772 46.0742L162.358 46.5039C161.303 49.0039 159.591 50.2539 157.221 50.2539C156.062 50.2539 155.079 49.9349 154.272 49.2969C153.478 48.6458 152.97 47.9232 152.748 47.1289C152.618 46.6862 152.553 45.4883 152.553 43.5352V33.6719H150.17V32.9883C151.811 31.8294 153.204 30.612 154.35 29.3359C155.509 28.0599 156.518 26.6341 157.377 25.0586H158.022Z" fill="black"/>
<defs>
<clipPath id="clip0_1_16">
<rect width="26" height="28" fill="white" transform="translate(156.258)"/>
</clipPath>
</defs>
</svg>
